# xmcd
#
# Track frame offsets:
#	150
#	11409
#	28446
#	47292
#	60063
#	79611
#	96108
#	113685
#	135366
#	145950
#	162717
#	177243
#	193200
#	214800
#
# Disc length: 3085 seconds
#
# Revision: 1
# Processed by: cddbd v1.5.2PL0 Copyright (c) Steve Scherf et al.
# Submitted via: audiograbber 1.80
#
DISCID=b70c0b0e
DTITLE=Various Artist - Stou tragoudiou tin oxthi [CD1]
DYEAR=1900
DGENRE=
TTITLE0=Στιγμές
TTITLE1=Ανατολή Και Δύση
TTITLE2=Ποτέ Μου Δε Μιλώ Για Αυτή
TTITLE3=Το Αίμα Του Ροδιού
TTITLE4=Βάλια Κάλντα
TTITLE5=’δειο Δωμάτιο
TTITLE6=Ανάθεμά Σε Έρωτα
TTITLE7=Συνταγές Μαγειρικής
TTITLE8=Μιρκό Τρεχαντηράκι
TTITLE9=Στην ’μμο ’μμο Πάενα
TTITLE10=Ευρωπαϊκό
TTITLE11=Terra CA Nun Senti
TTITLE12=Καφέ Γκρέκο (Επίλογος)
TTITLE13=Αι Γιώργης
EXTD=
EXTT0=
EXTT1=
EXTT2=
EXTT3=
EXTT4=
EXTT5=
EXTT6=
EXTT7=
EXTT8=
EXTT9=
EXTT10=
EXTT11=
EXTT12=
EXTT13=
PLAYORDER=
